<?xml version="1.0" encoding="utf-8"?>
<!-- Generator: Adobe Illustrator 21.0.0, SVG Export Plug-In . SVG Version: 6.00 Build 0)  -->
<svg version="1.1" id="图层_1" xmlns="http://www.w3.org/2000/svg" xmlns:xlink="http://www.w3.org/1999/xlink" x="0px" y="0px"
	 viewBox="0 0 167 36" style="enable-background:new 0 0 167 36;" xml:space="preserve">
<style type="text/css">
	.st0{fill:#FFFFFF;}
</style>
<title>Group 77</title>
<desc>Created with Sketch.</desc>
<g id="Page-2">
	<g id="首页-copy-3" transform="translate(-410.000000, -22.000000)">
		<g id="Group-82">
			<g id="Group-63">
				<g id="Group-77" transform="translate(410.000000, 20.000000)">
					<g id="资源-2" transform="translate(0.000000, 2.000000)">
						<g id="图层_2">
							<g>
								<g id="图层_3">
									<path id="Shape" class="st0" d="M34.9,15.9h-11c-0.8-3.2-3.9-5.3-7.2-4.9s-5.8,3.2-5.8,6.6s2.5,6.1,5.8,6.6
										c3.3,0.4,6.4-1.7,7.2-4.9h7.6c-0.7,6.2-5.4,11.2-11.5,12.3C14,32.6,7.9,29.6,5,24.1S3.1,11.9,7.5,7.5S18.7,2.1,24.1,5
										c-0.9,2.5,0.1,5.2,2.4,6.5s5.2,0.7,6.8-1.4s1.5-5-0.2-6.9c-1.8-1.9-4.7-2.3-6.9-0.9c-6.9-4-15.5-2.8-21.1,2.8
										s-6.7,14.3-2.8,21.2s12,10.2,19.7,8.2c7.7-2.1,13-9,13-16.9C35,16.9,35,16.3,34.9,15.9z M17.5,20.8c-1.8,0-3.3-1.5-3.3-3.3
										s1.5-3.3,3.3-3.3c1.8,0,3.3,1.5,3.3,3.3S19.3,20.8,17.5,20.8z M29.2,4.9c0.8,0,1.5,0.5,1.8,1.2s0.1,1.6-0.4,2.2
										C30,8.8,29.1,9,28.4,8.7c-0.7-0.3-1.2-1-1.2-1.8C27.2,5.8,28.1,4.9,29.2,4.9z"/>
									<path id="Shape_1_" class="st0" d="M69.1,17.2c0,0.1,0,0.2,0,0.3c-0.1,0-0.2,0-0.3,0c-1.3,0.2-2.6,0.3-4,0.3
										c-0.6,0-1.3-0.1-1.9-0.2c-0.5-0.1-1-0.3-1.5-0.6c-0.5-0.3-0.8-0.8-1-1.3C60.1,15,60,14.3,60,13.5V6.4
										c0-0.7,0.1-1.5,0.4-2.2c0.2-0.5,0.6-1,1-1.3c0.5-0.3,1-0.5,1.5-0.6c0.6-0.1,1.3-0.2,1.9-0.2c1.3,0,2.7,0.1,4,0.3
										c0.1,0,0.2,0,0.3,0c0,0.1,0,0.2,0,0.3V4c0,0.2-0.2,0.4-0.4,0.4h-4.2c-0.5,0-0.9,0.1-1.3,0.4c-0.3,0.4-0.4,0.9-0.4,1.4v2.2
										h5.7c0.2,0,0.4,0.2,0.4,0.4v1.5c0,0.2-0.2,0.4-0.4,0.4h-5.7v2.7c-0.1,0.6,0,1.1,0.4,1.6c0.4,0.3,0.8,0.4,1.3,0.4h4.2
										c0.2,0,0.4,0.2,0.4,0.4V17.2z"/>
									<path id="Shape_2_" class="st0" d="M81.1,17.2c0,0.1,0,0.2,0,0.3c-0.1,0-0.2,0-0.3,0c-1.3,0.2-2.6,0.3-4,0.3
										c-0.6,0-1.3-0.1-1.9-0.2c-0.5-0.1-1-0.3-1.5-0.6c-0.5-0.3-0.8-0.8-1-1.3C72.1,15,72,14.3,72,13.5V6.4
										c0-0.7,0.1-1.5,0.4-2.2c0.2-0.5,0.6-1,1-1.3c0.5-0.3,1-0.5,1.5-0.6c0.6-0.1,1.3-0.2,1.9-0.2c1.3,0,2.7,0.1,4,0.3
										c0.1,0,0.2,0,0.3,0c0,0.1,0,0.2,0,0.3V4c0,0.1,0,0.2-0.1,0.3c-0.1,0.1-0.2,0.1-0.3,0.1h-4.2c-0.5,0-0.9,0.1-1.3,0.4
										c-0.3,0.4-0.4,0.9-0.4,1.4v2.2h5.7c0.2,0,0.4,0.2,0.4,0.4v1.5c0,0.2-0.2,0.4-0.4,0.4h-5.7v2.7c-0.1,0.5,0.1,1,0.4,1.4
										c0.4,0.3,0.8,0.4,1.3,0.4h4.2c0.2,0,0.4,0.2,0.4,0.4V17.2z"/>
									<path id="Shape_3_" class="st0" d="M93.6,3.9h-4.1v13.5c0,0.1,0,0.2,0,0.3c-0.1,0-0.2,0-0.3,0H88c-0.1,0-0.2,0-0.3,0
										c0-0.1,0-0.2,0-0.3V3.9h-4.2c-0.1,0-0.2,0-0.3,0c0-0.1,0-0.2,0-0.2V2.7c0-0.1,0-0.2,0-0.3c0.1,0,0.2,0,0.3,0h10
										c0.3,0,0.4,0.1,0.4,0.4v0.9C94,3.8,93.8,3.9,93.6,3.9z"/>
									<path id="Shape_4_" class="st0" d="M104.7,17.7c0,0-0.1,0-0.1,0h-0.8h-3.3c-1.2,0.1-2.3-0.2-3.3-0.9
										c-0.8-0.8-1.2-1.9-1.1-3V6.1c-0.1-1.1,0.3-2.2,1.1-3c1-0.7,2.1-1,3.3-0.9h3.4h0.8c0,0,0.1,0,0.1,0c0,0.1,0,0.1,0,0.2v1
										c0,0.2,0,0.2-0.2,0.2h-4.1c-0.4,0-0.9,0-1.3,0c-0.3,0.1-0.6,0.2-0.8,0.4c-0.2,0.2-0.3,0.4-0.4,0.7
										c-0.1,0.4-0.2,0.9-0.2,1.4v3h6.4c0.1,0,0.2,0,0.3,0c0,0.1,0,0.2,0,0.3v0.8c0,0.1,0,0.2,0,0.3c-0.1,0-0.2,0-0.3,0h-6.4v3.5
										c0,0.3,0,0.7,0,1c0,0.3,0.2,0.5,0.4,0.7c0.2,0.2,0.5,0.3,0.8,0.4c0.4,0,0.9,0,1.3,0h4c0.1,0,0.2,0,0.2,0.2v1.1
										C104.7,17.5,104.7,17.6,104.7,17.7L104.7,17.7z"/>
									<path id="Shape_5_" class="st0" d="M116,13.8c0,0.5-0.1,0.9-0.2,1.3c-0.2,0.5-0.4,1-0.8,1.3c-0.5,0.4-1,0.8-1.6,1
										c-0.8,0.3-1.7,0.4-2.5,0.4c-0.6,0-1.3,0-1.9,0l-1.5-0.2c-0.1,0-0.2,0-0.3,0c0-0.1,0-0.2,0-0.2v-0.9c0-0.1,0-0.2,0-0.2
										c0.1,0,0.2,0,0.2,0l0,0h0.8h2.6c0.5,0,1,0,1.6-0.2c0.4-0.1,0.7-0.3,1-0.5c0.2-0.2,0.4-0.5,0.5-0.8c0.1-0.3,0.1-0.7,0-1
										c0-0.2,0-0.5,0-0.7c-0.1-0.2-0.2-0.4-0.4-0.6c-0.2-0.2-0.3-0.4-0.5-0.6l-1.2-0.8l-2-1.2c-0.8-0.5-1.5-1.1-2.2-1.8
										c-0.5-0.6-0.7-1.4-0.7-2.2c0-1,0.4-2,1.3-2.7c1.1-0.7,2.4-1,3.7-0.9h1h1h0.9h0.7c0.2,0,0.4,0.1,0.4,0.4v0.9
										c0,0.2-0.1,0.3-0.4,0.3l0,0h-1.7h-1.9c-0.8-0.1-1.6,0.1-2.4,0.4c-0.5,0.3-0.8,0.9-0.7,1.6c0,0.2,0,0.5,0,0.7
										c0.1,0.2,0.2,0.4,0.4,0.6c0.2,0.2,0.5,0.4,0.7,0.6l1,0.7l1.9,1.1c0.5,0.3,1,0.7,1.5,1c0.4,0.3,0.7,0.6,1,1
										c0.3,0.3,0.4,0.7,0.6,1C115.9,13,116,13.4,116,13.8z"/>
									<path id="Shape_6_" class="st0" d="M128,3.9h-4.1v13.5c0,0.1,0,0.2,0,0.3c-0.1,0-0.2,0-0.3,0h-1.3c-0.1,0-0.2,0-0.3,0
										c0-0.1,0-0.2,0-0.3V3.9H118c-0.1,0-0.2,0-0.3,0c0-0.1,0-0.2,0-0.2V2.7c0-0.1,0-0.2,0-0.3c0.1,0,0.2,0,0.3,0h10
										c0.3,0,0.4,0,0.4,0.4v0.9C128.4,3.8,128.2,3.9,128,3.9z"/>
									<path id="Shape_7_" class="st0" d="M50,5.5c0.6-0.6,1.5-1,2.3-0.9c1.2,0,2.4,0.3,3.4,1c0.1,0.1,0.4,0.1,0.5,0l0.8-1.1
										c0-0.2,0.2-0.4,0-0.6c-1.4-1.1-3.2-1.7-5.1-1.7c-0.7,0-1.4,0.1-2,0.3c-0.7,0.2-1.3,0.6-1.8,1c-0.6,0.5-1.1,1.2-1.4,2
										c-0.4,1-0.5,2-0.5,3v3c0,0.9,0.1,1.7,0.4,2.6c0.2,0.7,0.5,1.3,1,1.8c0.7,0.9,1.7,1.5,2.8,1.8C51,18,51.6,18,52.2,18
										c1.5,0.1,3-0.2,4.3-0.9c0.2-0.1,0.4-0.4,0.4-0.6V9.1c0-0.1,0-0.2,0-0.3c-0.1,0-0.2,0-0.3,0h-4.3c-0.2,0-0.4,0.2-0.4,0.4
										v1.5c0,0.2,0.2,0.4,0.4,0.4H54v4c-0.6,0.2-1.1,0.3-1.7,0.3c-0.8,0-1.6-0.3-2.2-0.9c-0.6-0.9-0.9-1.9-0.8-3v-3
										C49.1,7.5,49.4,6.4,50,5.5L50,5.5z"/>
								</g>
							</g>
						</g>
					</g>
					<path id="全球交互安全创领者" class="st0" d="M50.7,26.2h0.6c1.5,1.6,3.3,2.8,5.2,3.7l-0.4,0.8c-2-1-3.7-2.2-5.1-3.7
						c-1.3,1.5-3,2.7-5.1,3.8L45.4,30C47.5,29,49.3,27.7,50.7,26.2z M47.7,30h6.7v0.8h-2.9v2.1h3.5v0.8h-3.5V36H56v0.9H46V36h4.5
						v-2.2h-3.5v-0.8h3.5v-2.1h-2.9V30z M63.4,28.3h2.7v-2.1H67v2.1h2c-0.4-0.5-0.9-0.9-1.5-1.4l0.5-0.5c0.6,0.5,1.1,0.9,1.5,1.4
						l-0.5,0.5h0.7v0.8H67v1.2c0.2,0.6,0.4,1.1,0.6,1.7c0.6-0.6,1-1.2,1.5-2l0.6,0.5c-0.6,0.9-1.2,1.6-1.8,2.2
						c0.6,1.1,1.4,2.1,2.3,2.9l-0.6,0.7c-1.2-1.1-2.1-2.5-2.8-4.1v4c0,0.7-0.3,1-1,1h-1.3l-0.2-0.8c0.4,0,0.8,0.1,1.2,0.1
						c0.3,0,0.5-0.2,0.5-0.4v-3c-0.8,1.2-1.7,2.1-2.8,2.9l-0.4-0.7c1.2-0.8,2.3-1.9,3.2-3.4v-2.6h-2.7V28.3z M64.1,30.1
						c0.6,0.8,1,1.5,1.3,2l-0.6,0.4c-0.3-0.6-0.8-1.3-1.3-2L64.1,30.1z M59.6,30.6h1.4v-2.8h-1.5V27h3.8v0.8h-1.4v2.8H63v0.8h-1.2
						v2.4c0.5-0.2,1-0.4,1.4-0.7v0.8c-1.2,0.6-2.4,1.1-3.8,1.5l-0.2-0.9c0.6-0.1,1.1-0.3,1.7-0.5v-2.8h-1.4V30.6z M73.3,27.6v0.8
						h10.6v-0.8h-4.7c-0.2-0.6-0.5-1.1-0.7-1.5l-1,0.2c0.3,0.4,0.5,0.9,0.7,1.3H73.3z M80.5,28.8c1.3,1.1,2.4,2.1,3.3,3.2l-0.6,0.6
						c-0.8-1-1.9-2.1-3.3-3.2L80.5,28.8z M80.6,31.1l0.8,0.3c-0.6,1.1-1.3,2.1-2.1,2.9c1.3,0.9,2.9,1.6,4.7,2.1l-0.5,0.8
						c-1.9-0.6-3.6-1.3-4.9-2.3c-1.3,1.1-3,1.9-4.9,2.4l-0.5-0.8c1.9-0.5,3.5-1.2,4.7-2.2c-0.9-0.8-1.6-1.7-2.2-2.7l0.7-0.4
						c0.5,1,1.2,1.8,2.1,2.6C79.4,32.9,80.1,32.1,80.6,31.1z M76.6,28.8l0.6,0.6c-0.9,1.2-2,2.2-3.4,3.1l-0.6-0.7
						C74.6,30.9,75.7,30,76.6,28.8z M87.3,26.7h10.2v0.8h-6.3l-0.5,2h5.2l-1,6.4h2.9v0.8H87.1v-0.8h7l0.3-2.1h-5.6l1.5-6.3h-3V26.7z
						 M94.5,33l0.4-2.7h-4.5L89.8,33H94.5z M111.2,27.4V30h-0.9v-1.7h-8.2v1.7h-0.9v-2.6h4.6c-0.2-0.4-0.3-0.8-0.6-1.1l1-0.2
						c0.2,0.4,0.4,0.8,0.5,1.3H111.2z M100.9,30.7h3.4c0.4-0.7,0.7-1.3,1-2l0.9,0.3c-0.3,0.6-0.6,1.2-0.9,1.7h6.2v0.8h-2.4
						c-0.5,1.3-1.1,2.3-1.7,3c1.2,0.5,2.5,1.2,3.8,1.9l-0.6,0.8c-1.3-0.7-2.5-1.4-3.8-2c-1.3,1.2-3.1,1.8-5.4,1.9l-0.5-0.8
						c2,0,3.7-0.5,5-1.5c-1.1-0.5-2.2-0.9-3.4-1.3c0.4-0.7,0.8-1.3,1.2-2h-2.9V30.7z M104.8,31.5c-0.4,0.6-0.7,1.2-1,1.7
						c0.9,0.3,1.8,0.6,2.8,1c0.6-0.7,1.2-1.6,1.6-2.7H104.8z M119.7,26.2h0.6c1.5,1.6,3.3,2.8,5.2,3.7l-0.4,0.8
						c-2-1-3.7-2.2-5.1-3.7c-1.3,1.5-3,2.7-5.1,3.8l-0.4-0.8C116.5,29,118.3,27.7,119.7,26.2z M116.7,30h6.7v0.8h-2.9v2.1h3.5v0.8
						h-3.5V36h4.6v0.9h-10V36h4.5v-2.2h-3.5v-0.8h3.5v-2.1h-2.9V30z M132.9,30.8h-2.6v5c0,0.3,0.1,0.4,0.5,0.4h2.3
						c0.4,0,0.7-0.1,0.8-0.3c0.1-0.2,0.2-0.7,0.2-1.3l0.8,0.3c-0.1,1-0.2,1.6-0.5,1.9c-0.2,0.2-0.6,0.3-1.1,0.3h-2.9
						c-0.7,0-1-0.3-1-0.9v-6h4.3v3.2c0,0.6-0.3,1-1,1c-0.5,0-0.9,0-1.3,0l-0.2-0.8c0.5,0,0.9,0.1,1.2,0.1c0.3,0,0.5-0.2,0.5-0.5
						V30.8z M131.4,26.3h0.6c1,1.1,2.1,2.3,3,3.5l-0.6,0.6c-1-1.4-1.9-2.5-2.7-3.3c-0.9,1.3-1.9,2.5-3.1,3.6l-0.5-0.7
						C129.4,29,130.5,27.7,131.4,26.3z M135.8,27.3h0.8v7.5h-0.8V27.3z M137.8,37.1h-1.9l-0.2-0.8c0.6,0,1.2,0.1,1.8,0.1
						c0.3,0,0.5-0.2,0.5-0.5v-9.6h0.9V36C138.8,36.7,138.5,37.1,137.8,37.1z M147.2,26.7h5.7v0.8h-2.4c-0.1,0.5-0.1,0.9-0.2,1.3h2.2
						v5.7h-0.8v-4.9h-3.1v5h-0.9v-5.8h1.7c0.1-0.4,0.2-0.9,0.2-1.3h-2.4V26.7z M151.1,34.5c0.8,0.7,1.5,1.4,2.1,2.1l-0.6,0.6
						c-0.5-0.7-1.2-1.4-2-2.1L151.1,34.5z M149.7,30.4h0.8v2.1c0,1.3-0.3,2.3-0.7,3.1c-0.5,0.7-1.2,1.3-2.2,1.7l-0.5-0.7
						c1-0.4,1.7-0.9,2-1.5c0.4-0.6,0.6-1.5,0.6-2.5V30.4z M144.5,26.3h0.6c0.8,0.9,1.6,2,2.4,3l-0.6,0.6c-0.8-1.2-1.5-2.1-2-2.8
						c-0.7,1.2-1.5,2.3-2.4,3.3l-0.5-0.7C142.9,28.8,143.7,27.6,144.5,26.3z M142.7,31.5v0.8h3.4c-0.5,0.9-0.9,1.7-1.4,2.3
						c-0.4-0.3-0.8-0.6-1.2-1l-0.6,0.6c1.3,1,2.2,2,3,2.9l0.6-0.6c-0.4-0.4-0.8-0.9-1.3-1.3c0.7-0.9,1.3-1.8,1.8-2.9v-0.7H142.7z
						 M144.7,28.9c0.5,0.7,0.9,1.3,1.2,1.8l-0.6,0.4c-0.3-0.6-0.7-1.2-1.2-1.9L144.7,28.9z M157.2,27.4h3.3v-1.3h0.9v1.3h2.8v0.8
						h-2.8v1.4h1.5c1.1-0.8,2.1-1.7,3-2.7l0.7,0.5c-0.7,0.8-1.5,1.6-2.3,2.2h2.6v0.8h-3.7c-0.2,0.1-0.4,0.2-0.5,0.3
						c-0.6,0.3-1.2,0.7-1.9,1h4.5v5.4h-0.9v-0.5h-5.2v0.5h-0.9v-4.4c-0.6,0.2-1.3,0.5-2,0.7l-0.4-0.8c2.1-0.5,3.9-1.2,5.6-2.2h-5.5
						v-0.8h4.4v-1.4h-3.3V27.4z M159.2,34.6v1.3h5.2v-1.3H159.2z M164.4,33.8v-1.3h-5.2v1.3H164.4z"/>
					<path id="极验" class="st0" d="M137.7,11.1v8.5h-1.2V11c-0.6,1.7-1.3,3.3-2.2,4.7l-0.5-1.3c1.2-1.7,2.1-3.6,2.7-5.7H134V7.4
						h2.5V4.1h1.2v3.3h2v1.2h-2v1.1c0.7,0.8,1.5,1.8,2.3,2.8l-0.7,1.1C138.6,12.6,138.1,11.7,137.7,11.1z M141.3,6h-1.9V4.8h8v0.8
						c-0.3,1.5-0.7,2.8-1,3.9h2.2v0.7c-0.4,2.3-1.1,4.3-2.3,5.9c0.9,0.9,1.9,1.8,3.1,2.5l-0.8,1c-1.2-0.8-2.2-1.6-3.1-2.6
						c-1,1.1-2.3,2-3.7,2.7l-0.7-1.1c1.4-0.7,2.6-1.5,3.6-2.6c-1-1.4-1.8-2.9-2.3-4.6c-0.4,3.6-1.4,6.3-3,8.2l-0.9-0.8
						c1.9-2.3,2.9-6,3-11.1V6z M145.3,15.1c1-1.3,1.6-2.8,2-4.5h-2.4c0.3-1,0.7-2.6,1.2-4.6h-3.5v1.6c0,0.2,0,0.5,0,0.7
						C142.9,10.9,143.8,13.2,145.3,15.1z M159.1,9.1c-0.6,0.7-1.3,1.3-1.9,1.8l-0.6-1c1.9-1.5,3.4-3.4,4.4-5.8h1.1
						c0.9,2.2,2.3,4.1,4.5,5.7l-0.7,1c-0.7-0.6-1.4-1.2-2-1.8v1.1h-4.8V9.1z M163.8,9c-1-1.1-1.8-2.3-2.3-3.7
						C160.8,6.8,160,8,159.1,9H163.8z M157,17.9h5.5c0.6-1.8,1.2-4,1.7-6.7l1.2,0.3c-0.5,2.4-1,4.6-1.7,6.4h2.6v1.2H157V17.9z
						 M158.5,11.7c0.5,1.4,1,3,1.5,4.9l-1.1,0.3c-0.4-1.7-0.9-3.2-1.5-4.8L158.5,11.7z M161.2,11.2c0.5,1.3,0.9,2.9,1.2,4.6
						l-1.1,0.3c-0.3-1.6-0.7-3.1-1.2-4.6L161.2,11.2z M155.1,6H151V4.9h5.3l-0.8,7h1.1c0,3.9-0.2,6.1-0.5,6.7
						c-0.3,0.6-1,0.9-2.1,0.9c-0.4,0-0.8,0-1.2-0.1l-0.3-1.1c0.6,0.1,1,0.1,1.3,0.1c0.8,0,1.3-0.3,1.5-0.8c0.2-0.5,0.3-2.1,0.3-4.7
						h-4.3l0.8-5.8l1.1,0.1l-0.7,4.7h2L155.1,6z M154.4,14.5v1.1c-1.1,0.4-2.4,0.8-3.8,1l-0.2-1.2C152,15.2,153.3,14.9,154.4,14.5z"
						/>
				</g>
			</g>
		</g>
	</g>
</g>
</svg>
